  0
SECTION
  2
HEADER
  9
$ACADVER
  1
AC1006
  9
$INSBASE
 10
0.0
 20
0.0
 30
0.0
  9
$EXTMIN
 10
-616446.080
 20
-1159443.150
 30
0.0                 
  9
$EXTMAX
 10
-616040.680
 20
-1159313.990
 30
0.0                 
  9
$LIMMIN
 10
-616446.080
 20
-1159443.150
  9
$LIMMAX
 10
-616040.680
 20
-1159313.990
  9
$ORTHOMODE
 70
     0
  9
$REGENMODE
 70
     1
  9
$FILLMODE
 70
     1
  9
$QTEXTMODE
 70
     0
  9
$MIRRTEXT
 70
     1
  9
$DRAGMODE
 70
     2
  9
$LTSCALE
 40
10.0
  9
$OSMODE
 70
     0
  9
$ATTMODE
 70
     1
  9
$TEXTSIZE
 40
10.0
  9
$TRACEWID
 40
0.05
  9
$TEXTSTYLE
  7
GOTHICE
  9
$CLAYER
  8
0
  9
$CELTYPE
  6
BYBLOCK
  9
$CECOLOR
 62
     0
  9
$DIMSCALE
 40
1.0
  9
$DIMASZ
 40
0.18
  9
$DIMEXO
 40
0.0625
  9
$DIMDLI
 40
0.38
  9
$DIMRND
 40
0.0
  9
$DIMDLE
 40
0.0
  9
$DIMEXE
 40
0.18
  9
$DIMTP
 40
0.0
  9
$DIMTM
 40
0.0
  9
$DIMTXT
 40
0.18
  9
$DIMCEN
 40
0.09
  9
$DIMTSZ
 40
0.0
  9
$DIMTOL
 70
     0
  9
$DIMLIM
 70
     0
  9
$DIMTIH
 70
     1
  9
$DIMTOH
 70
     1
  9
$DIMSE1
 70
     0
  9
$DIMSE2
 70
     0
  9
$DIMTAD
 70
     0
  9
$DIMZIN
 70
     0
  9
$DIMBLK
  1

  9
$DIMASO
 70
     1
  9
$DIMSHO
 70
     0
  9
$DIMPOST
  1

  9
$DIMAPOST
  1

  9
$DIMALT
 70
     0
  9
$DIMALTD
 70
     2
  9
$DIMALTF
 40
25.4
  9
$DIMLFAC
 40
1.0
  9
$DIMTOFL
 70
     0
  9
$DIMTVP
 40
0.0
  9
$DIMTIX
 70
     0
  9
$DIMSOXD
 70
     0
  9
$DIMSAH
 70
     0
  9
$DIMBLK1
  1

  9
$DIMBLK2
  1

  9
$LUNITS
 70
     2
  9
$LUPREC
 70
     2
  9
$AXISMODE
 70
     0
  9
$AXISUNIT
 10
0.0
 20
0.0
  9
$SKETCHINC
 40
0.1
  9
$FILLETRAD
 40
0.0
  9
$AUNITS
 70
     0
  9
$AUPREC
 70
     0
  9
$MENU
  1
acad
  9
$ELEVATION
 40
0.0
  9
$THICKNESS
 40
0.0
  9
$LIMCHECK
 70
     0
  9
$BLIPMODE
 70
     1
  9
$CHAMFERA
 40
0.0
  9
$CHAMFERB
 40
0.0
  9
$SKPOLY
 70
     0
  9
$TDCREATE
 40
2448306.5833341437
  9
$TDUPDATE
 40
2449168.4672188656
  9
$TDINDWG
 40
5.0826726852
  9
$TDUSRTIMER
 40
5.0826726852
  9
$USRTIMER
 70
     1
  9
$ANGBASE
 50
0.0
  9
$ANGDIR
 70
     0
  9
$PDMODE
 70
     3
  9
$PDSIZE
 40
0.2
  9
$PLINEWID
 40
0.0
  9
$COORDS
 70
     2
  9
$SPLFRAME
 70
     0
  9
$SPLINETYPE
 70
     6
  9
$SPLINESEGS
 70
     8
  9
$ATTDIA
 70
     0
  9
$ATTREQ
 70
     1
  9
$HANDLING
 70
     0
  9
$HANDSEED
  5
0
  9
$SURFTAB1
 70
     6
  9
$SURFTAB2
 70
     6
  9
$SURFTYPE
 70
     6
  9
$SURFU
 70
     6
  9
$SURFV
 70
     6
  9
$FLATLAND
 70
     1
  9
$UCSNAME
  2

  9
$UCSORG
 10
0.0
 20
0.0
 30
0.0
  9
$UCSXDIR
 10
1.0
 20
0.0
 30
0.0
  9
$UCSYDIR
 10
0.0
 20
1.0
 30
0.0
  9
$USERI1
 70
     0
  9
$USERI2
 70
     0
  9
$USERI3
 70
     0
  9
$USERI4
 70
     0
  9
$USERI5
 70
     0
  9
$USERR1
 40
0.0
  9
$USERR2
 40
0.0
  9
$USERR3
 40
0.0
  9
$USERR4
 40
0.0
  9
$USERR5
 40
0.0
  9
$WORLDVIEW
 70
     1
  9
$VIEWCTR
 10
414.216867
 20
300.0
  9
$VIEWSIZE
 40
600.0
  9
$SNAPMODE
 70
     0
  9
$SNAPUNIT
 10
30.0
 20
30.0
  9
$SNAPBASE
 10
30.0
 20
480.0
  9
$SNAPANG
 50
0.0
  9
$SNAPSTYLE
 70
     0
  9
$SNAPISOPAIR
 70
     0
  9
$GRIDMODE
 70
     0
  9
$GRIDUNIT
 10
0.0
 20
0.0
  9
$FASTZOOM
 70
     1
  9
$VIEWDIR
 10
0.0
 20
0.0
 30
1.0
  0
ENDSEC
  0
SECTION
  2
TABLES
  0
TABLE
  2
VPORT
 70
     3
  0
VPORT
  2
*ACTIVE
 70
     0
 10
0.0
 20
0.0
 11
1.0
 21
1.0
 12
414.216867
 22
300.0
 13
30.0
 23
480.0
 14
30.0
 24
30.0
 15
0.0
 25
0.0
 16
0.0
 26
0.0
 36
1.0
 17
0.0
 27
0.0
 37
0.0
 40
600.0
 41
1.380723
 42
50.0
 43
0.0
 44
0.0
 50
0.0
 51
0.0
 71
     0
 72
   100
 73
     1
 74
     1
 75
     0
 76
     0
 77
     0
 78
     0
  0
ENDTAB
  0
TABLE
  2
LTYPE
 70
     9
  0
LTYPE
  2
CONTINUOUS
 70
    64
  3
Solid line
 72
    65
 73
     0
 40
0.0
  0
LTYPE
  2
DASHED
 70
    64
  3
__ __ __ __ __ __ __ __ __ __ __ __ __ __ __
 72
    65
 73
     2
 40
0.75
 49
0.5
 49
-0.25
  0
LTYPE
  2
HIDDEN
 70
    64
  3
_ _ _ _ _ _ _ _ _ _ _ _ _ _ _ _ _ _ _ _ _ _ _
 72
    65
 73
     2
 40
0.375
 49
0.25
 49
-0.125
  0
LTYPE
  2
CENTER
 70
    64
  3
____ _ ____ _ ____ _ ____ _ ____ _ ____ _ ____
 72
    65
 73
     4
 40
2.0
 49
1.25
 49
-0.25
 49
0.25
 49
-0.25
  0
LTYPE
  2
PHANTOM
 70
    64
  3
_____ _ _ _____ _ _ _____ _ _ _____ _ _ ____
 72
    65
 73
     6
 40
2.5
 49
1.25
 49
-0.25
 49
0.25
 49
-0.25
 49
0.25
 49
-0.25
  0
LTYPE
  2
DOT
 70
    64
  3
...............................................
 72
    65
 73
     2
 40
0.25
 49
0.0
 49
-0.25
  0
LTYPE
  2
DASHDOT
 70
    64
  3
__ . __ . __ . __ . __ . __ . __ . __ . __ . __
 72
    65
 73
     4
 40
1.0
 49
0.5
 49
-0.25
 49
0.0
 49
-0.25
  0
LTYPE
  2
BORDER
 70
    64
  3
__ __ . __ __ . __ __ . __ __ . __ __ . __ __
 72
    65
 73
     6
 40
1.75
 49
0.5
 49
-0.25
 49
0.5
 49
-0.25
 49
0.0
 49
-0.25
  0
LTYPE
  2
DIVIDE
 70
    64
  3
__ . . __ . . __ . . __ . . __ . . __ . . __
 72
    65
 73
     6
 40
1.25
 49
0.5
 49
-0.25
 49
0.0
 49
-0.25
 49
0.0
 49
-0.25
  0
ENDTAB
  0
TABLE
  2
LAYER
 70
     1
  0
LAYER
  2
0
 70
    64
 62
     2
  6
CONTINUOUS
  0
LAYER
  2
NASTUPISTE
 70
     0
 62
     7
  6
CONTINUOUS
  0
LAYER
  2
BUDOVA
 70
     0
 62
     7
  6
CONTINUOUS
  0
LAYER
  2
CESTA
 70
     0
 62
     7
  6
CONTINUOUS
  0
LAYER
  2
CHODNIK
 70
     0
 62
     7
  6
CONTINUOUS
  0
LAYER
  2
KOLEJ
 70
     0
 62
     7
  6
CONTINUOUS
  0
LAYER
  2
BETPLOCHA
 70
     0
 62
     7
  6
CONTINUOUS
  0
LAYER
  2
OCK
 70
     0
 62
     7
  6
CONTINUOUS
  0
LAYER
  2
PANELY
 70
     0
 62
     7
  6
CONTINUOUS
  0
LAYER
  2
PLOT
 70
     0
 62
     7
  6
CONTINUOUS
  0
LAYER
  2
RAMPA
 70
     0
 62
     7
  6
CONTINUOUS
  0
LAYER
  2
SCHODY
 70
     0
 62
     7
  6
CONTINUOUS
  0
LAYER
  2
ZLAB
 70
     0
 62
     7
  6
CONTINUOUS
  0
LAYER
  2
LAMPA-505
 70
     0
 62
     7
  6
CONTINUOUS
  0
ENDTAB
  0
TABLE
  2
STYLE
  0
STYLE
  2
STANDARD
 70
0
 40
0.2
 41
1.0
 50
0.0
 71
0
 42
0.0
  3
txt
  4

  0
STYLE
  2
ROMANS
 70
0
 40
0.2
 41
1.0
 50
0.0
 71
0
 42
0.0
  3
romans
  4

  0
STYLE
  2
ROMAND
 70
0
 40
0.2
 41
1.0
 50
0.0
 71
0
 42
0.0
  3
romand
  4

  0
STYLE
  2
GOTHICE
 70
0
 40
0.2
 41
1.0
 50
0.0
 71
0
 42
0.0
  3
gothice
  4

  0
STYLE
  2
SCRIPTC
 70
0
 40
0.2
 41
1.0
 50
0.0
 71
0
 42
0.0
  3
scriptc
  4

  0
STYLE
  2
MONOTXT
 70
0
 40
0.2
 41
1.0
 50
0.0
 71
0
 42
0.0
  3
monotxt
  4

  0
STYLE
  2
ITALIC
 70
0
 40
0.2
 41
1.0
 50
0.0
 71
0
 42
0.0
  3
italic
  4

  0
ENDTAB
  0
TABLE
  2
UCS
 70
0
  0
ENDTAB
  0
TABLE
  2
VIEW
 70
0
  0
ENDTAB
  0
ENDSEC
  0
SECTION
  2
BLOCKS
  0
BLOCK
  8
0
  2
2103
 70
    64
 10
0.0
 20
0.0
 30
0.0
  0
POLYLINE
  8
0
 66
     1
 10
0.0
 20
0.0
 30
0.0
  0
VERTEX
  8
0
 10
0.0
 20
0.0
 30
0.0
  0
VERTEX
  8
0
 10
0.0
 20
-0.7
 30
0.0
  0
SEQEND
  8
0
  0
ENDBLK
  8
0
  0
BLOCK
  8
0
  2
LAMPA_STARA
 70
    64
 10
0.0
 20
0.0
 30
0.0
  0
POLYLINE
  8
0
 66
     1
 10
0.0
 20
0.0
 30
0.0
  0
VERTEX
  8
0
 10
-0.04
 20
-0.01
 30
0.0
  0
VERTEX
  8
0
 10
0.06
 20
-0.01
 30
0.0
  0
SEQEND
  8
0
  0
POLYLINE
  8
0
 66
     1
 10
0.0
 20
0.0
 30
0.0
  0
VERTEX
  8
0
 10
1.96
 20
5.18
 30
0.0
  0
VERTEX
  8
0
 10
2.01
 20
4.99
 30
0.0
  0
VERTEX
  8
0
 10
2.04
 20
4.8
 30
0.0
  0
VERTEX
  8
0
 10
1.99
 20
4.53
 30
0.0
  0
VERTEX
  8
0
 10
1.86
 20
4.39
 30
0.0
  0
VERTEX
  8
0
 10
1.58
 20
4.32
 30
0.0
  0
VERTEX
  8
0
 10
1.34
 20
4.36
 30
0.0
  0
VERTEX
  8
0
 10
1.06
 20
4.54
 30
0.0
  0
SEQEND
  8
0
  0
POLYLINE
  8
0
 66
     1
 10
0.0
 20
0.0
 30
0.0
  0
VERTEX
  8
0
 10
0.69
 20
4.3
 30
0.0
  0
VERTEX
  8
0
 10
2.34
 20
5.45
 30
0.0
  0
SEQEND
  8
0
  0
POLYLINE
  8
0
 66
     1
 10
0.0
 20
0.0
 30
0.0
  0
VERTEX
  8
0
 10
0.0
 20
0.48
 30
0.0
  0
VERTEX
  8
0
 10
0.15
 20
0.48
 30
0.0
  0
VERTEX
  8
0
 10
0.4
 20
0.3
 30
0.0
  0
VERTEX
  8
0
 10
0.5
 20
0.01
 30
0.0
  0
VERTEX
  8
0
 10
0.4
 20
-0.28
 30
0.0
  0
VERTEX
  8
0
 10
0.15
 20
-0.46
 30
0.0
  0
VERTEX
  8
0
 10
-0.16
 20
-0.46
 30
0.0
  0
VERTEX
  8
0
 10
-0.41
 20
-0.28
 30
0.0
  0
VERTEX
  8
0
 10
-0.51
 20
0.01
 30
0.0
  0
VERTEX
  8
0
 10
-0.41
 20
0.3
 30
0.0
  0
VERTEX
  8
0
 10
-0.16
 20
0.48
 30
0.0
  0
VERTEX
  8
0
 10
-0.01
 20
0.48
 30
0.0
  0
VERTEX
  8
0
 10
-0.01
 20
4.9
 30
0.0
  0
VERTEX
  8
0
 10
0.06
 20
5.11
 30
0.0
  0
VERTEX
  8
0
 10
0.19
 20
5.3
 30
0.0
  0
VERTEX
  8
0
 10
0.42
 20
5.45
 30
0.0
  0
VERTEX
  8
0
 10
0.74
 20
5.52
 30
0.0
  0
VERTEX
  8
0
 10
1.01
 20
5.48
 30
0.0
  0
VERTEX
  8
0
 10
1.26
 20
5.32
 30
0.0
  0
VERTEX
  8
0
 10
1.5
 20
4.87
 30
0.0
  0
SEQEND
  8
0
  0
ENDBLK
  8
0
  0
ENDSEC
  0
SECTION
  2
ENTITIES
  0
POLYLINE
  8
KOLEJ
  6
CONTINUOUS
 62
   7
 66
   1
  0
VERTEX
  8
KOLEJ
  6
CONTINUOUS
 62
   7
 10
-616396.923
 20
-1159361.373
  0
VERTEX
  8
KOLEJ
  6
CONTINUOUS
 62
   7
 10
-616368.189
 20
-1159368.070
  0
VERTEX
  8
KOLEJ
  6
CONTINUOUS
 62
   7
 10
-616329.787
 20
-1159376.962
  0
VERTEX
  8
KOLEJ
  6
CONTINUOUS
 62
   7
 10
-616289.597
 20
-1159386.247
  0
VERTEX
  8
KOLEJ
  6
CONTINUOUS
 62
   7
 10
-616255.718
 20
-1159394.123
  0
VERTEX
  8
KOLEJ
  6
CONTINUOUS
 62
   7
 10
-616224.645
 20
-1159401.331
  0
VERTEX
  8
KOLEJ
  6
CONTINUOUS
 62
   7
 10
-616212.832
 20
-1159404.078
  0
VERTEX
  8
KOLEJ
  6
CONTINUOUS
 62
   7
 10
-616199.617
 20
-1159407.138
  0
VERTEX
  8
KOLEJ
  6
CONTINUOUS
 62
   7
 10
-616181.250
 20
-1159411.380
  0
VERTEX
  8
KOLEJ
  6
CONTINUOUS
 62
   7
 10
-616149.630
 20
-1159418.672
  0
VERTEX
  8
KOLEJ
  6
CONTINUOUS
 62
   7
 10
-616134.107
 20
-1159422.263
  0
VERTEX
  8
KOLEJ
  6
CONTINUOUS
 62
   7
 10
-616102.285
 20
-1159429.623
  0
VERTEX
  8
KOLEJ
  6
CONTINUOUS
 62
   7
 10
-616069.271
 20
-1159437.239
  0
VERTEX
  8
KOLEJ
  6
CONTINUOUS
 62
   7
 10
-616043.207
 20
-1159443.143
  0
SEQEND
  8
KOLEJ
  6
CONTINUOUS
 62
   7
  0
POLYLINE
  8
KOLEJ
  6
CONTINUOUS
 62
   7
 66
   1
  0
VERTEX
  8
KOLEJ
  6
CONTINUOUS
 62
   7
 10
-616396.596
 20
-1159356.983
  0
VERTEX
  8
KOLEJ
  6
CONTINUOUS
 62
   7
 10
-616367.681
 20
-1159363.640
  0
VERTEX
  8
KOLEJ
  6
CONTINUOUS
 62
   7
 10
-616329.217
 20
-1159372.501
  0
VERTEX
  8
KOLEJ
  6
CONTINUOUS
 62
   7
 10
-616288.252
 20
-1159381.979
  0
VERTEX
  8
KOLEJ
  6
CONTINUOUS
 62
   7
 10
-616254.846
 20
-1159389.681
  0
VERTEX
  8
KOLEJ
  6
CONTINUOUS
 62
   7
 10
-616223.182
 20
-1159397.015
  0
VERTEX
  8
KOLEJ
  6
CONTINUOUS
 62
   7
 10
-616211.888
 20
-1159399.616
  0
VERTEX
  8
KOLEJ
  6
CONTINUOUS
 62
   7
 10
-616198.845
 20
-1159402.622
  0
VERTEX
  8
KOLEJ
  6
CONTINUOUS
 62
   7
 10
-616180.002
 20
-1159406.959
  0
VERTEX
  8
KOLEJ
  6
CONTINUOUS
 62
   7
 10
-616148.763
 20
-1159414.167
  0
VERTEX
  8
KOLEJ
  6
CONTINUOUS
 62
   7
 10
-616133.214
 20
-1159417.737
  0
VERTEX
  8
KOLEJ
  6
CONTINUOUS
 62
   7
 10
-616100.909
 20
-1159425.173
  0
VERTEX
  8
KOLEJ
  6
CONTINUOUS
 62
   7
 10
-616068.336
 20
-1159432.686
  0
VERTEX
  8
KOLEJ
  6
CONTINUOUS
 62
   7
 10
-616041.668
 20
-1159438.668
  0
SEQEND
  8
KOLEJ
  6
CONTINUOUS
 62
   7
  0
POLYLINE
  8
KOLEJ
  6
CONTINUOUS
 62
   7
 66
   1
  0
VERTEX
  8
KOLEJ
  6
CONTINUOUS
 62
   7
 10
-616395.559
 20
-1159352.248
  0
VERTEX
  8
KOLEJ
  6
CONTINUOUS
 62
   7
 10
-616366.309
 20
-1159359.026
  0
VERTEX
  8
KOLEJ
  6
CONTINUOUS
 62
   7
 10
-616327.612
 20
-1159367.993
  0
VERTEX
  8
KOLEJ
  6
CONTINUOUS
 62
   7
 10
-616287.297
 20
-1159377.299
  0
VERTEX
  8
KOLEJ
  6
CONTINUOUS
 62
   7
 10
-616253.535
 20
-1159385.130
  0
VERTEX
  8
KOLEJ
  6
CONTINUOUS
 62
   7
 10
-616222.216
 20
-1159392.335
  0
VERTEX
  8
KOLEJ
  6
CONTINUOUS
 62
   7
 10
-616210.919
 20
-1159394.940
  0
VERTEX
  8
KOLEJ
  6
CONTINUOUS
 62
   7
 10
-616197.900
 20
-1159397.954
  0
VERTEX
  8
KOLEJ
  6
CONTINUOUS
 62
   7
 10
-616179.353
 20
-1159402.228
  0
VERTEX
  8
KOLEJ
  6
CONTINUOUS
 62
   7
 10
-616147.957
 20
-1159409.485
  0
VERTEX
  8
KOLEJ
  6
CONTINUOUS
 62
   7
 10
-616132.142
 20
-1159413.138
  0
VERTEX
  8
KOLEJ
  6
CONTINUOUS
 62
   7
 10
-616099.720
 20
-1159420.606
  0
VERTEX
  8
KOLEJ
  6
CONTINUOUS
 62
   7
 10
-616093.121
 20
-1159422.128
  0
VERTEX
  8
KOLEJ
  6
CONTINUOUS
 62
   7
 10
-616085.591
 20
-1159423.847
  0
VERTEX
  8
KOLEJ
  6
CONTINUOUS
 62
   7
 10
-616079.711
 20
-1159425.180
  0
VERTEX
  8
KOLEJ
  6
CONTINUOUS
 62
   7
 10
-616067.019
 20
-1159428.049
  0
VERTEX
  8
KOLEJ
  6
CONTINUOUS
 62
   7
 10
-616059.271
 20
-1159429.812
  0
VERTEX
  8
KOLEJ
  6
CONTINUOUS
 62
   7
 10
-616051.236
 20
-1159431.625
  0
VERTEX
  8
KOLEJ
  6
CONTINUOUS
 62
   7
 10
-616040.683
 20
-1159433.974
  0
SEQEND
  8
KOLEJ
  6
CONTINUOUS
 62
   7
  0
POLYLINE
  8
KOLEJ
  6
CONTINUOUS
 62
   7
 66
   1
  0
VERTEX
  8
KOLEJ
  6
CONTINUOUS
 62
   7
 10
-616394.434
 20
-1159348.216
  0
VERTEX
  8
KOLEJ
  6
CONTINUOUS
 62
   7
 10
-616365.261
 20
-1159354.992
  0
VERTEX
  8
KOLEJ
  6
CONTINUOUS
 62
   7
 10
-616326.503
 20
-1159363.938
  0
VERTEX
  8
KOLEJ
  6
CONTINUOUS
 62
   7
 10
-616286.342
 20
-1159373.256
  0
VERTEX
  8
KOLEJ
  6
CONTINUOUS
 62
   7
 10
-616252.556
 20
-1159381.100
  0
VERTEX
  8
KOLEJ
  6
CONTINUOUS
 62
   7
 10
-616221.589
 20
-1159388.266
  0
VERTEX
  8
KOLEJ
  6
CONTINUOUS
 62
   7
 10
-616210.212
 20
-1159390.922
  0
VERTEX
  8
KOLEJ
  6
CONTINUOUS
 62
   7
 10
-616196.372
 20
-1159394.120
  0
VERTEX
  8
KOLEJ
  6
CONTINUOUS
 62
   7
 10
-616178.599
 20
-1159398.181
  0
VERTEX
  8
KOLEJ
  6
CONTINUOUS
 62
   7
 10
-616147.162
 20
-1159405.385
  0
VERTEX
  8
KOLEJ
  6
CONTINUOUS
 62
   7
 10
-616131.228
 20
-1159409.044
  0
VERTEX
  8
KOLEJ
  6
CONTINUOUS
 62
   7
 10
-616099.053
 20
-1159416.539
  0
VERTEX
  8
KOLEJ
  6
CONTINUOUS
 62
   7
 10
-616091.678
 20
-1159418.310
  0
VERTEX
  8
KOLEJ
  6
CONTINUOUS
 62
   7
 10
-616082.782
 20
-1159420.782
  0
VERTEX
  8
KOLEJ
  6
CONTINUOUS
 62
   7
 10
-616074.111
 20
-1159423.626
  0
VERTEX
  8
KOLEJ
  6
CONTINUOUS
 62
   7
 10
-616066.775
 20
-1159426.132
  0
VERTEX
  8
KOLEJ
  6
CONTINUOUS
 62
   7
 10
-616058.856
 20
-1159428.804
  0
VERTEX
  8
KOLEJ
  6
CONTINUOUS
 62
   7
 10
-616051.166
 20
-1159431.252
  0
SEQEND
  8
KOLEJ
  6
CONTINUOUS
 62
   7
  0
POLYLINE
  8
KOLEJ
  6
CONTINUOUS
 62
   7
 66
   1
  0
VERTEX
  8
KOLEJ
  6
CONTINUOUS
 62
   7
 10
-616393.360
 20
-1159343.828
  0
VERTEX
  8
KOLEJ
  6
CONTINUOUS
 62
   7
 10
-616376.942
 20
-1159347.811
  0
VERTEX
  8
KOLEJ
  6
CONTINUOUS
 62
   7
 10
-616364.424
 20
-1159350.818
  0
VERTEX
  8
KOLEJ
  6
CONTINUOUS
 62
   7
 10
-616325.650
 20
-1159359.939
  0
VERTEX
  8
KOLEJ
  6
CONTINUOUS
 62
   7
 10
-616284.144
 20
-1159369.671
  0
VERTEX
  8
KOLEJ
  6
CONTINUOUS
 62
   7
 10
-616274.266
 20
-1159372.342
  0
SEQEND
  8
KOLEJ
  6
CONTINUOUS
 62
   7
  0
POLYLINE
  8
KOLEJ
  6
CONTINUOUS
 62
   7
 66
   1
  0
VERTEX
  8
KOLEJ
  6
CONTINUOUS
 62
   7
 10
-616446.078
 20
-1159329.832
  0
VERTEX
  8
KOLEJ
  6
CONTINUOUS
 62
   7
 10
-616431.905
 20
-1159330.474
  0
VERTEX
  8
KOLEJ
  6
CONTINUOUS
 62
   7
 10
-616422.362
 20
-1159330.201
  0
VERTEX
  8
KOLEJ
  6
CONTINUOUS
 62
   7
 10
-616397.358
 20
-1159329.040
  0
VERTEX
  8
KOLEJ
  6
CONTINUOUS
 62
   7
 10
-616385.113
 20
-1159328.651
  0
VERTEX
  8
KOLEJ
  6
CONTINUOUS
 62
   7
 10
-616374.972
 20
-1159328.572
  0
VERTEX
  8
KOLEJ
  6
CONTINUOUS
 62
   7
 10
-616366.857
 20
-1159328.738
  0
VERTEX
  8
KOLEJ
  6
CONTINUOUS
 62
   7
 10
-616355.687
 20
-1159329.580
  0
VERTEX
  8
KOLEJ
  6
CONTINUOUS
 62
   7
 10
-616343.510
 20
-1159331.045
  0
VERTEX
  8
KOLEJ
  6
CONTINUOUS
 62
   7
 10
-616332.774
 20
-1159332.687
  0
VERTEX
  8
KOLEJ
  6
CONTINUOUS
 62
   7
 10
-616322.042
 20
-1159334.869
  0
VERTEX
  8
KOLEJ
  6
CONTINUOUS
 62
   7
 10
-616307.354
 20
-1159338.334
  0
VERTEX
  8
KOLEJ
  6
CONTINUOUS
 62
   7
 10
-616302.425
 20
-1159339.594
  0
VERTEX
  8
KOLEJ
  6
CONTINUOUS
 62
   7
 10
-616287.593
 20
-1159343.222
  0
VERTEX
  8
KOLEJ
  6
CONTINUOUS
 62
   7
 10
-616276.108
 20
-1159345.445
  0
VERTEX
  8
KOLEJ
  6
CONTINUOUS
 62
   7
 10
-616268.013
 20
-1159346.731
  0
VERTEX
  8
KOLEJ
  6
CONTINUOUS
 62
   7
 10
-616260.693
 20
-1159347.748
  0
VERTEX
  8
KOLEJ
  6
CONTINUOUS
 62
   7
 10
-616253.414
 20
-1159348.871
  0
VERTEX
  8
KOLEJ
  6
CONTINUOUS
 62
   7
 10
-616245.526
 20
-1159350.255
  0
VERTEX
  8
KOLEJ
  6
CONTINUOUS
 62
   7
 10
-616236.733
 20
-1159352.052
  0
VERTEX
  8
KOLEJ
  6
CONTINUOUS
 62
   7
 10
-616224.848
 20
-1159354.874
  0
VERTEX
  8
KOLEJ
  6
CONTINUOUS
 62
   7
 10
-616220.958
 20
-1159355.798
  0
SEQEND
  8
KOLEJ
  6
CONTINUOUS
 62
   7
  0
POLYLINE
  8
RAMPA
  6
CONTINUOUS
 62
   7
 66
   1
  0
VERTEX
  8
RAMPA
  6
CONTINUOUS
 62
   7
 10
-616365.733
 20
-1159347.577
  0
VERTEX
  8
RAMPA
  6
CONTINUOUS
 62
   7
 10
-616366.024
 20
-1159348.736
  0
VERTEX
  8
RAMPA
  6
CONTINUOUS
 62
   7
 10
-616349.194
 20
-1159352.674
  0
VERTEX
  8
RAMPA
  6
CONTINUOUS
 62
   7
 10
-616331.740
 20
-1159356.780
  0
VERTEX
  8
RAMPA
  6
CONTINUOUS
 62
   7
 10
-616318.931
 20
-1159359.778
  0
VERTEX
  8
RAMPA
  6
CONTINUOUS
 62
   7
 10
-616314.528
 20
-1159360.781
  0
VERTEX
  8
RAMPA
  6
CONTINUOUS
 62
   7
 10
-616307.087
 20
-1159362.475
  0
VERTEX
  8
RAMPA
  6
CONTINUOUS
 62
   7
 10
-616297.233
 20
-1159364.739
  0
VERTEX
  8
RAMPA
  6
CONTINUOUS
 62
   7
 10
-616286.377
 20
-1159367.255
  0
VERTEX
  8
RAMPA
  6
CONTINUOUS
 62
   7
 10
-616269.755
 20
-1159371.728
  0
VERTEX
  8
RAMPA
  6
CONTINUOUS
 62
   7
 10
-616264.893
 20
-1159373.178
  0
VERTEX
  8
RAMPA
  6
CONTINUOUS
 62
   7
 10
-616259.860
 20
-1159374.756
  0
SEQEND
  8
RAMPA
  6
CONTINUOUS
 62
   7
  0
POLYLINE
  8
RAMPA
  6
CONTINUOUS
 62
   7
 66
   1
  0
VERTEX
  8
RAMPA
  6
CONTINUOUS
 62
   7
 10
-616312.719
 20
-1159352.874
  0
VERTEX
  8
RAMPA
  6
CONTINUOUS
 62
   7
 10
-616309.760
 20
-1159353.566
  0
VERTEX
  8
RAMPA
  6
CONTINUOUS
 62
   7
 10
-616309.623
 20
-1159352.979
  0
VERTEX
  8
RAMPA
  6
CONTINUOUS
 62
   7
 10
-616307.039
 20
-1159353.588
  0
VERTEX
  8
RAMPA
  6
CONTINUOUS
 62
   7
 10
-616306.967
 20
-1159354.220
  0
VERTEX
  8
RAMPA
  6
CONTINUOUS
 62
   7
 10
-616303.017
 20
-1159355.131
  0
VERTEX
  8
RAMPA
  6
CONTINUOUS
 62
   7
 10
-616303.747
 20
-1159358.071
  0
SEQEND
  8
RAMPA
  6
CONTINUOUS
 62
   7
  0
LINE
  8
RAMPA
  6
CONTINUOUS
 62
   7
 10
-616269.755
 20
-1159371.728
 11
-616268.716
 21
-1159367.865
  0
LINE
  8
RAMPA
  6
CONTINUOUS
 62
   7
 10
-616259.860
 20
-1159374.756
 11
-616260.159
 21
-1159366.038
  0
LINE
  8
RAMPA
  6
CONTINUOUS
 62
   7
 10
-616292.457
 20
-1159359.934
 11
-616293.757
 21
-1159365.545
  0
POLYLINE
  8
BUDOVA
  6
CONTINUOUS
 62
   7
 66
   1
  0
VERTEX
  8
BUDOVA
  6
CONTINUOUS
 62
   7
 10
-616348.699
 20
-1159351.789
  0
VERTEX
  8
BUDOVA
  6
CONTINUOUS
 62
   7
 10
-616341.915
 20
-1159353.460
  0
VERTEX
  8
BUDOVA
  6
CONTINUOUS
 62
   7
 10
-616314.329
 20
-1159359.850
  0
VERTEX
  8
BUDOVA
  6
CONTINUOUS
 62
   7
 10
-616312.719
 20
-1159352.874
  0
VERTEX
  8
BUDOVA
  6
CONTINUOUS
 62
   7
 10
-616347.097
 20
-1159344.907
  0
VERTEX
  8
BUDOVA
  6
CONTINUOUS
 62
   7
 10
-616348.699
 20
-1159351.789
  0
SEQEND
  8
BUDOVA
  6
CONTINUOUS
 62
   7
  0
POLYLINE
  8
BUDOVA
  6
CONTINUOUS
 62
   7
 66
   1
  0
VERTEX
  8
BUDOVA
  6
CONTINUOUS
 62
   7
 10
-616371.203
 20
-1159346.325
  0
VERTEX
  8
BUDOVA
  6
CONTINUOUS
 62
   7
 10
-616365.733
 20
-1159347.577
  0
VERTEX
  8
BUDOVA
  6
CONTINUOUS
 62
   7
 10
-616364.785
 20
-1159343.600
  0
VERTEX
  8
BUDOVA
  6
CONTINUOUS
 62
   7
 10
-616370.268
 20
-1159342.332
  0
VERTEX
  8
BUDOVA
  6
CONTINUOUS
 62
   7
 10
-616371.203
 20
-1159346.325
  0
SEQEND
  8
BUDOVA
  6
CONTINUOUS
 62
   7
  0
POLYLINE
  8
BUDOVA
  6
CONTINUOUS
 62
   7
 66
   1
  0
VERTEX
  8
BUDOVA
  6
CONTINUOUS
 62
   7
 10
-616389.679
 20
-1159341.089
  0
VERTEX
  8
BUDOVA
  6
CONTINUOUS
 62
   7
 10
-616389.838
 20
-1159341.819
  0
VERTEX
  8
BUDOVA
  6
CONTINUOUS
 62
   7
 10
-616375.861
 20
-1159345.150
  0
VERTEX
  8
BUDOVA
  6
CONTINUOUS
 62
   7
 10
-616374.198
 20
-1159338.243
  0
VERTEX
  8
BUDOVA
  6
CONTINUOUS
 62
   7
 10
-616386.392
 20
-1159335.370
  0
VERTEX
  8
BUDOVA
  6
CONTINUOUS
 62
   7
 10
-616386.946
 20
-1159337.660
  0
VERTEX
  8
BUDOVA
  6
CONTINUOUS
 62
   7
 10
-616388.744
 20
-1159337.225
  0
VERTEX
  8
BUDOVA
  6
CONTINUOUS
 62
   7
 10
-616389.679
 20
-1159341.089
  0
SEQEND
  8
BUDOVA
  6
CONTINUOUS
 62
   7
  0
POLYLINE
  8
BUDOVA
  6
CONTINUOUS
 62
   7
 66
   1
  0
VERTEX
  8
BUDOVA
  6
CONTINUOUS
 62
   7
 10
-616434.989
 20
-1159326.850
  0
VERTEX
  8
BUDOVA
  6
CONTINUOUS
 62
   7
 10
-616432.070
 20
-1159327.541
  0
VERTEX
  8
BUDOVA
  6
CONTINUOUS
 62
   7
 10
-616430.188
 20
-1159319.586
  0
VERTEX
  8
BUDOVA
  6
CONTINUOUS
 62
   7
 10
-616433.107
 20
-1159318.895
  0
SEQEND
  8
BUDOVA
  6
CONTINUOUS
 62
   7
  0
POLYLINE
  8
BUDOVA
  6
CONTINUOUS
 62
   7
 66
   1
  0
VERTEX
  8
BUDOVA
  6
CONTINUOUS
 62
   7
 10
-616391.443
 20
-1159317.893
  0
VERTEX
  8
BUDOVA
  6
CONTINUOUS
 62
   7
 10
-616387.536
 20
-1159318.749
  0
VERTEX
  8
BUDOVA
  6
CONTINUOUS
 62
   7
 10
-616386.681
 20
-1159314.848
  0
VERTEX
  8
BUDOVA
  6
CONTINUOUS
 62
   7
 10
-616390.588
 20
-1159313.991
  0
SEQEND
  8
BUDOVA
  6
CONTINUOUS
 62
   7
  0
POLYLINE
  8
BUDOVA
  6
CONTINUOUS
 62
   7
 66
   1
  0
VERTEX
  8
BUDOVA
  6
CONTINUOUS
 62
   7
 10
-616235.243
 20
-1159368.814
  0
VERTEX
  8
BUDOVA
  6
CONTINUOUS
 62
   7
 10
-616234.588
 20
-1159365.886
  0
VERTEX
  8
BUDOVA
  6
CONTINUOUS
 62
   7
 10
-616252.520
 20
-1159361.875
  0
VERTEX
  8
BUDOVA
  6
CONTINUOUS
 62
   7
 10
-616253.797
 20
-1159367.263
  0
VERTEX
  8
BUDOVA
  6
CONTINUOUS
 62
   7
 10
-616249.904
 20
-1159368.185
  0
SEQEND
  8
BUDOVA
  6
CONTINUOUS
 62
   7
  0
POLYLINE
  8
BUDOVA
  6
CONTINUOUS
 62
   7
 66
   1
  0
VERTEX
  8
BUDOVA
  6
CONTINUOUS
 62
   7
 10
-616230.253
 20
-1159369.997
  0
VERTEX
  8
BUDOVA
  6
CONTINUOUS
 62
   7
 10
-616229.596
 20
-1159367.070
  0
VERTEX
  8
BUDOVA
  6
CONTINUOUS
 62
   7
 10
-616224.051
 20
-1159368.314
  0
VERTEX
  8
BUDOVA
  6
CONTINUOUS
 62
   7
 10
-616224.708
 20
-1159371.241
  0
SEQEND
  8
BUDOVA
  6
CONTINUOUS
 62
   7
  0
POLYLINE
  8
BUDOVA
  6
CONTINUOUS
 62
   7
 66
   1
  0
VERTEX
  8
BUDOVA
  6
CONTINUOUS
 62
   7
 10
-616212.628
 20
-1159380.449
  0
VERTEX
  8
BUDOVA
  6
CONTINUOUS
 62
   7
 10
-616213.649
 20
-1159384.576
  0
VERTEX
  8
BUDOVA
  6
CONTINUOUS
 62
   7
 10
-616213.838
 20
-1159384.747
  0
VERTEX
  8
BUDOVA
  6
CONTINUOUS
 62
   7
 10
-616213.871
 20
-1159384.961
  0
VERTEX
  8
BUDOVA
  6
CONTINUOUS
 62
   7
 10
-616213.769
 20
-1159385.121
  0
VERTEX
  8
BUDOVA
  6
CONTINUOUS
 62
   7
 10
-616213.398
 20
-1159385.207
  0
VERTEX
  8
BUDOVA
  6
CONTINUOUS
 62
   7
 10
-616213.196
 20
-1159385.101
  0
VERTEX
  8
BUDOVA
  6
CONTINUOUS
 62
   7
 10
-616213.151
 20
-1159384.906
  0
VERTEX
  8
BUDOVA
  6
CONTINUOUS
 62
   7
 10
-616212.235
 20
-1159385.118
  0
VERTEX
  8
BUDOVA
  6
CONTINUOUS
 62
   7
 10
-616186.087
 20
-1159391.167
  0
VERTEX
  8
BUDOVA
  6
CONTINUOUS
 62
   7
 10
-616185.132
 20
-1159391.388
  0
VERTEX
  8
BUDOVA
  6
CONTINUOUS
 62
   7
 10
-616185.177
 20
-1159391.583
  0
VERTEX
  8
BUDOVA
  6
CONTINUOUS
 62
   7
 10
-616185.052
 20
-1159391.741
  0
VERTEX
  8
BUDOVA
  6
CONTINUOUS
 62
   7
 10
-616184.660
 20
-1159391.843
  0
VERTEX
  8
BUDOVA
  6
CONTINUOUS
 62
   7
 10
-616184.475
 20
-1159391.739
  0
VERTEX
  8
BUDOVA
  6
CONTINUOUS
 62
   7
 10
-616184.390
 20
-1159391.348
  0
VERTEX
  8
BUDOVA
  6
CONTINUOUS
 62
   7
 10
-616183.325
 20
-1159386.463
  0
SEQEND
  8
BUDOVA
  6
CONTINUOUS
 62
   7
  0
POLYLINE
  8
BUDOVA
  6
CONTINUOUS
 62
   7
 66
   1
  0
VERTEX
  8
BUDOVA
  6
CONTINUOUS
 62
   7
 10
-616184.390
 20
-1159391.348
  0
VERTEX
  8
BUDOVA
  6
CONTINUOUS
 62
   7
 10
-616174.280
 20
-1159393.552
  0
VERTEX
  8
BUDOVA
  6
CONTINUOUS
 62
   7
 10
-616173.215
 20
-1159388.667
  0
SEQEND
  8
BUDOVA
  6
CONTINUOUS
 62
   7
  0
POLYLINE
  8
BUDOVA
  6
CONTINUOUS
 62
   7
 66
   1
  0
VERTEX
  8
BUDOVA
  6
CONTINUOUS
 62
   7
 10
-616254.890
 20
-1159372.118
  0
VERTEX
  8
BUDOVA
  6
CONTINUOUS
 62
   7
 10
-616255.569
 20
-1159375.040
  0
VERTEX
  8
BUDOVA
  6
CONTINUOUS
 62
   7
 10
-616243.303
 20
-1159377.888
  0
VERTEX
  8
BUDOVA
  6
CONTINUOUS
 62
   7
 10
-616232.865
 20
-1159380.276
  0
VERTEX
  8
BUDOVA
  6
CONTINUOUS
 62
   7
 10
-616232.196
 20
-1159377.352
  0
SEQEND
  8
BUDOVA
  6
CONTINUOUS
 62
   7
  0
LINE
  8
BUDOVA
  6
CONTINUOUS
 62
   7
 10
-616243.303
 20
-1159377.888
 11
-616242.624
 21
-1159374.966
  0
LINE
  8
BUDOVA
  6
CONTINUOUS
 62
   7
 10
-616341.915
 20
-1159353.460
 11
-616340.298
 21
-1159346.483
  0
POLYLINE
  8
NASTUPISTE
  6
CONTINUOUS
 62
   7
 66
   1
  0
VERTEX
  8
NASTUPISTE
  6
CONTINUOUS
 62
   7
 10
-616396.613
 20
-1159359.749
  0
VERTEX
  8
NASTUPISTE
  6
CONTINUOUS
 62
   7
 10
-616368.226
 20
-1159366.354
  0
VERTEX
  8
NASTUPISTE
  6
CONTINUOUS
 62
   7
 10
-616329.612
 20
-1159375.302
  0
VERTEX
  8
NASTUPISTE
  6
CONTINUOUS
 62
   7
 10
-616288.942
 20
-1159384.703
  0
VERTEX
  8
NASTUPISTE
  6
CONTINUOUS
 62
   7
 10
-616257.655
 20
-1159391.945
  0
SEQEND
  8
NASTUPISTE
  6
CONTINUOUS
 62
   7
  0
POLYLINE
  8
NASTUPISTE
  6
CONTINUOUS
 62
   7
 66
   1
  0
VERTEX
  8
NASTUPISTE
  6
CONTINUOUS
 62
   7
 10
-616253.533
 20
-1159392.914
  0
VERTEX
  8
NASTUPISTE
  6
CONTINUOUS
 62
   7
 10
-616224.355
 20
-1159399.703
  0
VERTEX
  8
NASTUPISTE
  6
CONTINUOUS
 62
   7
 10
-616214.742
 20
-1159401.897
  0
SEQEND
  8
NASTUPISTE
  6
CONTINUOUS
 62
   7
  0
POLYLINE
  8
NASTUPISTE
  6
CONTINUOUS
 62
   7
 66
   1
  0
VERTEX
  8
NASTUPISTE
  6
CONTINUOUS
 62
   7
 10
-616210.695
 20
-1159402.851
  0
VERTEX
  8
NASTUPISTE
  6
CONTINUOUS
 62
   7
 10
-616199.304
 20
-1159405.500
  0
VERTEX
  8
NASTUPISTE
  6
CONTINUOUS
 62
   7
 10
-616180.860
 20
-1159409.771
  0
VERTEX
  8
NASTUPISTE
  6
CONTINUOUS
 62
   7
 10
-616148.622
 20
-1159417.241
  0
VERTEX
  8
NASTUPISTE
  6
CONTINUOUS
 62
   7
 10
-616133.564
 20
-1159420.688
  0
VERTEX
  8
NASTUPISTE
  6
CONTINUOUS
 62
   7
 10
-616100.099
 20
-1159428.418
  0
SEQEND
  8
NASTUPISTE
  6
CONTINUOUS
 62
   7
  0
POLYLINE
  8
NASTUPISTE
  6
CONTINUOUS
 62
   7
 66
   1
  0
VERTEX
  8
NASTUPISTE
  6
CONTINUOUS
 62
   7
 10
-616395.410
 20
-1159355.597
  0
VERTEX
  8
NASTUPISTE
  6
CONTINUOUS
 62
   7
 10
-616367.556
 20
-1159362.013
  0
VERTEX
  8
NASTUPISTE
  6
CONTINUOUS
 62
   7
 10
-616328.531
 20
-1159370.990
  0
VERTEX
  8
NASTUPISTE
  6
CONTINUOUS
 62
   7
 10
-616288.178
 20
-1159380.335
  0
VERTEX
  8
NASTUPISTE
  6
CONTINUOUS
 62
   7
 10
-616256.023
 20
-1159387.712
  0
SEQEND
  8
NASTUPISTE
  6
CONTINUOUS
 62
   7
  0
LINE
  8
NASTUPISTE
  6
CONTINUOUS
 62
   7
 10
-616252.794
 20
-1159388.466
 11
-616225.233
 21
-1159394.902
  0
LINE
  8
NASTUPISTE
  6
CONTINUOUS
 62
   7
 10
-616221.508
 20
-1159395.723
 11
-616213.555
 21
-1159397.562
  0
LINE
  8
NASTUPISTE
  6
CONTINUOUS
 62
   7
 10
-616209.594
 20
-1159398.465
 11
-616200.520
 21
-1159400.564
  0
POLYLINE
  8
NASTUPISTE
  6
CONTINUOUS
 62
   7
 66
   1
  0
VERTEX
  8
NASTUPISTE
  6
CONTINUOUS
 62
   7
 10
-616196.542
 20
-1159401.482
  0
VERTEX
  8
NASTUPISTE
  6
CONTINUOUS
 62
   7
 10
-616179.826
 20
-1159405.328
  0
VERTEX
  8
NASTUPISTE
  6
CONTINUOUS
 62
   7
 10
-616147.738
 20
-1159412.754
  0
VERTEX
  8
NASTUPISTE
  6
CONTINUOUS
 62
   7
 10
-616132.384
 20
-1159416.293
  0
VERTEX
  8
NASTUPISTE
  6
CONTINUOUS
 62
   7
 10
-616106.883
 20
-1159422.151
  0
SEQEND
  8
NASTUPISTE
  6
CONTINUOUS
 62
   7
  0
POLYLINE
  8
NASTUPISTE
  6
CONTINUOUS
 62
   7
 66
   1
  0
VERTEX
  8
NASTUPISTE
  6
CONTINUOUS
 62
   7
 10
-616394.441
 20
-1159350.798
  0
VERTEX
  8
NASTUPISTE
  6
CONTINUOUS
 62
   7
 10
-616366.005
 20
-1159357.444
  0
VERTEX
  8
NASTUPISTE
  6
CONTINUOUS
 62
   7
 10
-616327.130
 20
-1159366.459
  0
VERTEX
  8
NASTUPISTE
  6
CONTINUOUS
 62
   7
 10
-616286.713
 20
-1159375.781
  0
VERTEX
  8
NASTUPISTE
  6
CONTINUOUS
 62
   7
 10
-616254.383
 20
-1159383.272
  0
SEQEND
  8
NASTUPISTE
  6
CONTINUOUS
 62
   7
  0
LINE
  8
NASTUPISTE
  6
CONTINUOUS
 62
   7
 10
-616251.487
 20
-1159383.958
 11
-616224.234
 21
-1159390.203
  0
LINE
  8
NASTUPISTE
  6
CONTINUOUS
 62
   7
 10
-616220.304
 20
-1159391.118
 11
-616212.570
 21
-1159392.909
  0
LINE
  8
NASTUPISTE
  6
CONTINUOUS
 62
   7
 10
-616208.656
 20
-1159393.809
 11
-616199.303
 21
-1159395.958
  0
POLYLINE
  8
NASTUPISTE
  6
CONTINUOUS
 62
   7
 66
   1
  0
VERTEX
  8
NASTUPISTE
  6
CONTINUOUS
 62
   7
 10
-616195.421
 20
-1159396.838
  0
VERTEX
  8
NASTUPISTE
  6
CONTINUOUS
 62
   7
 10
-616179.006
 20
-1159400.667
  0
VERTEX
  8
NASTUPISTE
  6
CONTINUOUS
 62
   7
 10
-616146.602
 20
-1159408.155
  0
VERTEX
  8
NASTUPISTE
  6
CONTINUOUS
 62
   7
 10
-616131.345
 20
-1159411.663
  0
VERTEX
  8
NASTUPISTE
  6
CONTINUOUS
 62
   7
 10
-616095.024
 20
-1159420.011
  0
SEQEND
  8
NASTUPISTE
  6
CONTINUOUS
 62
   7
  0
INSERT
  8
LAMPA-505
  6
CONTINUOUS
 62
   7
  2
LAMPA_STARA
 10
-616054.456
 20
-1159426.735
 41
1.000000
 42
1.000000
 50
0.630254
  0
INSERT
  8
LAMPA-505
  6
CONTINUOUS
 62
   7
  2
LAMPA_STARA
 10
-616098.267
 20
-1159413.610
 41
1.000000
 42
1.000000
 50
352.884706
  0
INSERT
  8
LAMPA-505
  6
CONTINUOUS
 62
   7
  2
LAMPA_STARA
 10
-616139.950
 20
-1159403.330
 41
1.000000
 42
1.000000
 50
346.238396
  0
INSERT
  8
LAMPA-505
  6
CONTINUOUS
 62
   7
  2
LAMPA_STARA
 10
-616229.649
 20
-1159382.959
 41
1.000000
 42
1.000000
 50
9.052733
  0
INSERT
  8
LAMPA-505
  6
CONTINUOUS
 62
   7
  2
LAMPA_STARA
 10
-616313.148
 20
-1159359.661
 41
1.000000
 42
1.000000
 50
347.728086
  0
INSERT
  8
LAMPA-505
  6
CONTINUOUS
 62
   7
  2
LAMPA_STARA
 10
-616266.111
 20
-1159333.866
 41
1.000000
 42
1.000000
 50
358.786171
  0
INSERT
  8
LAMPA-505
  6
CONTINUOUS
 62
   7
  2
LAMPA_STARA
 10
-616294.720
 20
-1159329.227
 41
1.000000
 42
1.000000
 50
356.666227
  0
INSERT
  8
LAMPA-505
  6
CONTINUOUS
 62
   7
  2
LAMPA_STARA
 10
-616317.880
 20
-1159325.296
 41
1.000000
 42
1.000000
 50
354.488988
  0
INSERT
  8
LAMPA-505
  6
CONTINUOUS
 62
   7
  2
LAMPA_STARA
 10
-616342.668
 20
-1159321.074
 41
1.000000
 42
1.000000
 50
359.989383
  0
INSERT
  8
LAMPA-505
  6
CONTINUOUS
 62
   7
  2
LAMPA_STARA
 10
-616427.351
 20
-1159327.159
 41
1.000000
 42
1.000000
 50
348.472931
  0
INSERT
  8
LAMPA-505
  6
CONTINUOUS
 62
   7
  2
LAMPA_STARA
 10
-616390.338
 20
-1159341.327
 41
1.000000
 42
1.000000
 50
358.556988
  0
INSERT
  8
LAMPA-505
  6
CONTINUOUS
 62
   7
  2
LAMPA_STARA
 10
-616349.501
 20
-1159351.189
 41
1.000000
 42
1.000000
 50
16.673072
  0
INSERT
  8
LAMPA-505
  6
CONTINUOUS
 62
   7
  2
LAMPA_STARA
 10
-616247.576
 20
-1159362.208
 41
1.000000
 42
1.000000
 50
354.087917
  0
INSERT
  8
LAMPA-505
  6
CONTINUOUS
 62
   7
  2
LAMPA_STARA
 10
-616260.523
 20
-1159373.100
 41
1.000000
 42
1.000000
 50
345.436255
  0
POLYLINE
  8
ZLAB
  6
CONTINUOUS
 62
   7
 66
   1
  0
VERTEX
  8
ZLAB
  6
CONTINUOUS
 62
   7
 10
-616249.499
 20
-1159352.448
  0
VERTEX
  8
ZLAB
  6
CONTINUOUS
 62
   7
 10
-616267.692
 20
-1159348.781
  0
VERTEX
  8
ZLAB
  6
CONTINUOUS
 62
   7
 10
-616288.210
 20
-1159344.776
  0
VERTEX
  8
ZLAB
  6
CONTINUOUS
 62
   7
 10
-616303.697
 20
-1159341.695
  0
VERTEX
  8
ZLAB
  6
CONTINUOUS
 62
   7
 10
-616315.470
 20
-1159339.237
  0
VERTEX
  8
ZLAB
  6
CONTINUOUS
 62
   7
 10
-616320.364
 20
-1159338.215
  0
SEQEND
  8
ZLAB
  6
CONTINUOUS
 62
   7
  0
POLYLINE
  8
ZLAB
  6
CONTINUOUS
 62
   7
 66
   1
  0
VERTEX
  8
ZLAB
  6
CONTINUOUS
 62
   7
 10
-616249.499
 20
-1159352.448
  0
VERTEX
  8
ZLAB
  6
CONTINUOUS
 62
   7
 10
-616249.687
 20
-1159353.379
  0
VERTEX
  8
ZLAB
  6
CONTINUOUS
 62
   7
 10
-616267.880
 20
-1159349.712
  0
VERTEX
  8
ZLAB
  6
CONTINUOUS
 62
   7
 10
-616288.361
 20
-1159345.709
  0
VERTEX
  8
ZLAB
  6
CONTINUOUS
 62
   7
 10
-616303.891
 20
-1159342.625
  0
VERTEX
  8
ZLAB
  6
CONTINUOUS
 62
   7
 10
-616315.664
 20
-1159340.167
  0
VERTEX
  8
ZLAB
  6
CONTINUOUS
 62
   7
 10
-616320.559
 20
-1159339.145
  0
SEQEND
  8
ZLAB
  6
CONTINUOUS
 62
   7
  0
POLYLINE
  8
PANELY
  6
CONTINUOUS
 62
   7
 66
   1
  0
VERTEX
  8
PANELY
  6
CONTINUOUS
 62
   7
 10
-616392.712
 20
-1159319.543
  0
VERTEX
  8
PANELY
  6
CONTINUOUS
 62
   7
 10
-616387.852
 20
-1159320.677
  0
VERTEX
  8
PANELY
  6
CONTINUOUS
 62
   7
 10
-616378.901
 20
-1159323.286
  0
VERTEX
  8
PANELY
  6
CONTINUOUS
 62
   7
 10
-616379.752
 20
-1159326.122
  0
VERTEX
  8
PANELY
  6
CONTINUOUS
 62
   7
 10
-616388.596
 20
-1159323.528
  0
VERTEX
  8
PANELY
  6
CONTINUOUS
 62
   7
 10
-616393.277
 20
-1159322.442
  0
VERTEX
  8
PANELY
  6
CONTINUOUS
 62
   7
 10
-616392.712
 20
-1159319.543
  0
SEQEND
  8
PANELY
  6
CONTINUOUS
 62
   7
  0
POLYLINE
  8
OCK
  6
CONTINUOUS
 62
   7
 66
   1
  0
VERTEX
  8
OCK
  6
CONTINUOUS
 62
   7
 10
-616146.602
 20
-1159401.693
  0
VERTEX
  8
OCK
  6
CONTINUOUS
 62
   7
 10
-616143.955
 20
-1159402.265
  0
VERTEX
  8
OCK
  6
CONTINUOUS
 62
   7
 10
-616151.866
 20
-1159436.068
  0
VERTEX
  8
OCK
  6
CONTINUOUS
 62
   7
 10
-616154.594
 20
-1159435.629
  0
VERTEX
  8
OCK
  6
CONTINUOUS
 62
   7
 10
-616146.602
 20
-1159401.693
  0
SEQEND
  8
OCK
  6
CONTINUOUS
 62
   7
  0
POLYLINE
  8
OCK
  6
CONTINUOUS
 62
   7
 66
   1
  0
VERTEX
  8
OCK
  6
CONTINUOUS
 62
   7
 10
-616143.099
 20
-1159402.528
  0
VERTEX
  8
OCK
  6
CONTINUOUS
 62
   7
 10
-616147.470
 20
-1159401.509
  0
VERTEX
  8
OCK
  6
CONTINUOUS
 62
   7
 10
-616147.402
 20
-1159401.217
  0
VERTEX
  8
OCK
  6
CONTINUOUS
 62
   7
 10
-616143.031
 20
-1159402.236
  0
VERTEX
  8
OCK
  6
CONTINUOUS
 62
   7
 10
-616143.099
 20
-1159402.528
  0
SEQEND
  8
OCK
  6
CONTINUOUS
 62
   7
  0
POLYLINE
  8
PLOT
  6
CONTINUOUS
 62
   7
 66
   1
  0
VERTEX
  8
PLOT
  6
CONTINUOUS
 62
   7
 10
-616106.484
 20
-1159405.034
  0
VERTEX
  8
PLOT
  6
CONTINUOUS
 62
   7
 10
-616108.005
 20
-1159411.143
  0
VERTEX
  8
PLOT
  6
CONTINUOUS
 62
   7
 10
-616114.025
 20
-1159409.643
  0
VERTEX
  8
PLOT
  6
CONTINUOUS
 62
   7
 10
-616111.546
 20
-1159399.483
  0
SEQEND
  8
PLOT
  6
CONTINUOUS
 62
   7
  0
POLYLINE
  8
PLOT
  6
CONTINUOUS
 62
   7
 66
   1
  0
VERTEX
  8
PLOT
  6
CONTINUOUS
 62
   7
 10
-616114.025
 20
-1159409.643
  0
VERTEX
  8
PLOT
  6
CONTINUOUS
 62
   7
 10
-616128.334
 20
-1159406.134
  0
VERTEX
  8
PLOT
  6
CONTINUOUS
 62
   7
 10
-616126.575
 20
-1159398.162
  0
SEQEND
  8
PLOT
  6
CONTINUOUS
 62
   7
  0
POLYLINE
  8
PLOT
  6
CONTINUOUS
 62
   7
 66
   1
  0
VERTEX
  8
PLOT
  6
CONTINUOUS
 62
   7
 10
-616128.334
 20
-1159406.134
  0
VERTEX
  8
PLOT
  6
CONTINUOUS
 62
   7
 10
-616141.661
 20
-1159402.520
  0
VERTEX
  8
PLOT
  6
CONTINUOUS
 62
   7
 10
-616143.428
 20
-1159401.396
  0
VERTEX
  8
PLOT
  6
CONTINUOUS
 62
   7
 10
-616142.735
 20
-1159397.618
  0
SEQEND
  8
PLOT
  6
CONTINUOUS
 62
   7
  0
POLYLINE
  8
BETPLOCHA
  6
CONTINUOUS
 62
   7
 66
   1
  0
VERTEX
  8
BETPLOCHA
  6
CONTINUOUS
 62
   7
 10
-616154.208
 20
-1159398.977
  0
VERTEX
  8
BETPLOCHA
  6
CONTINUOUS
 62
   7
 10
-616173.392
 20
-1159394.053
  0
VERTEX
  8
BETPLOCHA
  6
CONTINUOUS
 62
   7
 10
-616174.280
 20
-1159393.552
  0
SEQEND
  8
BETPLOCHA
  6
CONTINUOUS
 62
   7
  0
POLYLINE
  8
BETPLOCHA
  6
CONTINUOUS
 62
   7
 66
   1
  0
VERTEX
  8
BETPLOCHA
  6
CONTINUOUS
 62
   7
 10
-616173.392
 20
-1159394.053
  0
VERTEX
  8
BETPLOCHA
  6
CONTINUOUS
 62
   7
 10
-616173.335
 20
-1159393.830
  0
VERTEX
  8
BETPLOCHA
  6
CONTINUOUS
 62
   7
 10
-616154.151
 20
-1159398.754
  0
VERTEX
  8
BETPLOCHA
  6
CONTINUOUS
 62
   7
 10
-616154.208
 20
-1159398.977
  0
SEQEND
  8
BETPLOCHA
  6
CONTINUOUS
 62
   7
  0
POLYLINE
  8
CHODNIK
  6
CONTINUOUS
 62
   7
 66
   1
  0
VERTEX
  8
CHODNIK
  6
CONTINUOUS
 62
   7
 10
-616174.280
 20
-1159393.552
  0
VERTEX
  8
CHODNIK
  6
CONTINUOUS
 62
   7
 10
-616175.195
 20
-1159396.928
  0
VERTEX
  8
CHODNIK
  6
CONTINUOUS
 62
   7
 10
-616196.321
 20
-1159392.099
  0
VERTEX
  8
CHODNIK
  6
CONTINUOUS
 62
   7
 10
-616209.446
 20
-1159389.072
  0
VERTEX
  8
CHODNIK
  6
CONTINUOUS
 62
   7
 10
-616215.864
 20
-1159387.565
  0
VERTEX
  8
CHODNIK
  6
CONTINUOUS
 62
   7
 10
-616215.225
 20
-1159384.958
  0
VERTEX
  8
CHODNIK
  6
CONTINUOUS
 62
   7
 10
-616213.769
 20
-1159385.121
  0
SEQEND
  8
CHODNIK
  6
CONTINUOUS
 62
   7
  0
POLYLINE
  8
CESTA
  6
CONTINUOUS
 62
   7
 66
   1
  0
VERTEX
  8
CESTA
  6
CONTINUOUS
 62
   7
 10
-616153.029
 20
-1159394.481
  0
VERTEX
  8
CESTA
  6
CONTINUOUS
 62
   7
 10
-616154.217
 20
-1159399.338
  0
VERTEX
  8
CESTA
  6
CONTINUOUS
 62
   7
 10
-616150.083
 20
-1159400.349
  0
VERTEX
  8
CESTA
  6
CONTINUOUS
 62
   7
 10
-616148.895
 20
-1159395.492
  0
SEQEND
  8
CESTA
  6
CONTINUOUS
 62
   7
  0
POLYLINE
  8
CESTA
  6
CONTINUOUS
 62
   7
 66
   1
  0
VERTEX
  8
CESTA
  6
CONTINUOUS
 62
   7
 10
-616260.159
 20
-1159366.038
  0
VERTEX
  8
CESTA
  6
CONTINUOUS
 62
   7
 10
-616260.406
 20
-1159359.844
  0
VERTEX
  8
CESTA
  6
CONTINUOUS
 62
   7
 10
-616264.514
 20
-1159356.426
  0
VERTEX
  8
CESTA
  6
CONTINUOUS
 62
   7
 10
-616282.555
 20
-1159352.040
  0
VERTEX
  8
CESTA
  6
CONTINUOUS
 62
   7
 10
-616295.573
 20
-1159348.958
  0
SEQEND
  8
CESTA
  6
CONTINUOUS
 62
   7
  0
POLYLINE
  8
SCHODY
  6
CONTINUOUS
 62
   7
 66
   1
  0
VERTEX
  8
SCHODY
  6
CONTINUOUS
 62
   7
 10
-616366.024
 20
-1159348.736
  0
VERTEX
  8
SCHODY
  6
CONTINUOUS
 62
   7
 10
-616367.593
 20
-1159348.266
  0
VERTEX
  8
SCHODY
  6
CONTINUOUS
 62
   7
 10
-616367.351
 20
-1159347.207
  0
SEQEND
  8
SCHODY
  6
CONTINUOUS
 62
   7
  0
POLYLINE
  8
RAMPA
  6
CONTINUOUS
 62
   7
 66
   1
  0
VERTEX
  8
RAMPA
  6
CONTINUOUS
 62
   7
 10
-616364.785
 20
-1159343.600
  0
VERTEX
  8
RAMPA
  6
CONTINUOUS
 62
   7
 10
-616364.632
 20
-1159342.878
  0
VERTEX
  8
RAMPA
  6
CONTINUOUS
 62
   7
 10
-616352.608
 20
-1159345.601
  0
SEQEND
  8
RAMPA
  6
CONTINUOUS
 62
   7
  0
POLYLINE
  8
PANELY
  6
CONTINUOUS
 62
   7
 66
   1
  0
VERTEX
  8
PANELY
  6
CONTINUOUS
 62
   7
 10
-616389.679
 20
-1159341.089
  0
VERTEX
  8
PANELY
  6
CONTINUOUS
 62
   7
 10
-616413.048
 20
-1159335.066
  0
VERTEX
  8
PANELY
  6
CONTINUOUS
 62
   7
 10
-616411.815
 20
-1159332.891
  0
VERTEX
  8
PANELY
  6
CONTINUOUS
 62
   7
 10
-616406.286
 20
-1159332.714
  0
VERTEX
  8
PANELY
  6
CONTINUOUS
 62
   7
 10
-616389.736
 20
-1159336.985
  0
VERTEX
  8
PANELY
  6
CONTINUOUS
 62
   7
 10
-616388.744
 20
-1159337.225
  0
SEQEND
  8
PANELY
  6
CONTINUOUS
 62
   7
  0
POLYLINE
  8
BETPLOCHA
  6
CONTINUOUS
 62
   7
 66
   1
  0
VERTEX
  8
BETPLOCHA
  6
CONTINUOUS
 62
   7
 10
-616384.249
 20
-1159317.150
  0
VERTEX
  8
BETPLOCHA
  6
CONTINUOUS
 62
   7
 10
-616384.646
 20
-1159319.387
  0
VERTEX
  8
BETPLOCHA
  6
CONTINUOUS
 62
   7
 10
-616381.735
 20
-1159319.538
  0
VERTEX
  8
BETPLOCHA
  6
CONTINUOUS
 62
   7
 10
-616381.338
 20
-1159317.301
  0
VERTEX
  8
BETPLOCHA
  6
CONTINUOUS
 62
   7
 10
-616384.249
 20
-1159317.150
  0
SEQEND
  8
BETPLOCHA
  6
CONTINUOUS
 62
   7
  0
POLYLINE
  8
BETPLOCHA
  6
CONTINUOUS
 62
   7
 66
   1
  0
VERTEX
  8
BETPLOCHA
  6
CONTINUOUS
 62
   7
 10
-616142.751
 20
-1159402.144
  0
VERTEX
  8
BETPLOCHA
  6
CONTINUOUS
 62
   7
 10
-616143.002
 20
-1159403.112
  0
VERTEX
  8
BETPLOCHA
  6
CONTINUOUS
 62
   7
 10
-616147.782
 20
-1159401.873
  0
VERTEX
  8
BETPLOCHA
  6
CONTINUOUS
 62
   7
 10
-616147.531
 20
-1159400.905
  0
SEQEND
  8
BETPLOCHA
  6
CONTINUOUS
 62
   7
  0
POLYLINE
  8
SCHODY
  6
CONTINUOUS
 62
   7
 66
   1
  0
VERTEX
  8
SCHODY
  6
CONTINUOUS
 62
   7
 10
-616196.784
 20
-1159388.692
  0
VERTEX
  8
SCHODY
  6
CONTINUOUS
 62
   7
 10
-616196.816
 20
-1159388.829
  0
VERTEX
  8
SCHODY
  6
CONTINUOUS
 62
   7
 10
-616198.735
 20
-1159388.347
  0
VERTEX
  8
SCHODY
  6
CONTINUOUS
 62
   7
 10
-616198.712
 20
-1159388.246
  0
SEQEND
  8
SCHODY
  6
CONTINUOUS
 62
   7
  0
POLYLINE
  8
SCHODY
  6
CONTINUOUS
 62
   7
 66
   1
  0
VERTEX
  8
SCHODY
  6
CONTINUOUS
 62
   7
 10
-616199.604
 20
-1159388.040
  0
VERTEX
  8
SCHODY
  6
CONTINUOUS
 62
   7
 10
-616199.634
 20
-1159388.169
  0
VERTEX
  8
SCHODY
  6
CONTINUOUS
 62
   7
 10
-616201.544
 20
-1159387.726
  0
VERTEX
  8
SCHODY
  6
CONTINUOUS
 62
   7
 10
-616201.514
 20
-1159387.598
  0
SEQEND
  8
SCHODY
  6
CONTINUOUS
 62
   7
  0
POLYLINE
  8
SCHODY
  6
CONTINUOUS
 62
   7
 66
   1
  0
VERTEX
  8
SCHODY
  6
CONTINUOUS
 62
   7
 10
-616208.046
 20
-1159386.087
  0
VERTEX
  8
SCHODY
  6
CONTINUOUS
 62
   7
 10
-616208.076
 20
-1159386.216
  0
VERTEX
  8
SCHODY
  6
CONTINUOUS
 62
   7
 10
-616209.801
 20
-1159385.807
  0
VERTEX
  8
SCHODY
  6
CONTINUOUS
 62
   7
 10
-616209.773
 20
-1159385.687
  0
SEQEND
  8
SCHODY
  6
CONTINUOUS
 62
   7
  0
INSERT
  8
PLOT
  6
CONTINUOUS
 62
   7
  2
2103
 10
-616107.692
 20
-1159409.886
 41
1.000000
 42
1.000000
 50
255.997543
  0
INSERT
  8
PLOT
  6
CONTINUOUS
 62
   7
  2
2103
 10
-616112.857
 20
-1159409.934
 41
1.000000
 42
1.000000
 50
165.985873
  0
INSERT
  8
PLOT
  6
CONTINUOUS
 62
   7
  2
2103
 10
-616112.840
 20
-1159404.786
 41
1.000000
 42
1.000000
 50
76.260683
  0
INSERT
  8
PLOT
  6
CONTINUOUS
 62
   7
  2
2103
 10
-616118.881
 20
-1159408.452
 41
1.000000
 42
1.000000
 50
166.215056
  0
INSERT
  8
PLOT
  6
CONTINUOUS
 62
   7
  2
2103
 10
-616127.257
 20
-1159401.251
 41
1.000000
 42
1.000000
 50
77.578485
  0
INSERT
  8
PLOT
  6
CONTINUOUS
 62
   7
  2
2103
 10
-616133.160
 20
-1159404.825
 41
1.000000
 42
1.000000
 50
164.839958
  0
ENDSEC
  0
EOF
